<svg width="21" height="32" viewBox="0 0 21 32" fill="none" xmlns="http://www.w3.org/2000/svg">
<path d="M10.67 18C11.3604 18 11.92 17.1046 11.92 16C11.92 14.8954 11.3604 14 10.67 14C9.97969 14 9.42004 14.8954 9.42004 16C9.42004 17.1046 9.97969 18 10.67 18Z" fill="black"/>
<path d="M5.67004 18C6.3604 18 6.92004 17.1046 6.92004 16C6.92004 14.8954 6.3604 14 5.67004 14C4.97969 14 4.42004 14.8954 4.42004 16C4.42004 17.1046 4.97969 18 5.67004 18Z" fill="black"/>
<path d="M15.67 18C16.3604 18 16.92 17.1046 16.92 16C16.92 14.8954 16.3604 14 15.67 14C14.9797 14 14.42 14.8954 14.42 16C14.42 17.1046 14.9797 18 15.67 18Z" fill="black"/>
</svg>
