<svg width="35" height="32" viewBox="0 0 35 32" fill="none" xmlns="http://www.w3.org/2000/svg">
<rect x="0.670044" width="34" height="32" rx="8" fill="#EFEFEF"/>
<path d="M22.3407 13.5013C22.3407 13.9628 22.2039 14.414 21.9475 14.7977C21.691 15.1814 21.3266 15.4805 20.9002 15.6571C20.4738 15.8337 20.0046 15.8798 19.552 15.7898C19.0993 15.6997 18.6836 15.4774 18.3573 15.151C18.031 14.8246 17.8088 14.4088 17.7188 13.9561C17.6289 13.5034 17.6752 13.0343 17.8519 12.6079C18.0286 12.1816 18.3278 11.8172 18.7116 11.5609C19.0954 11.3046 19.5466 11.1678 20.0081 11.168C20.6269 11.168 21.2204 11.4138 21.658 11.8514C22.0956 12.289 22.3407 12.8825 22.3407 13.5013Z" stroke="black" stroke-width="1.33333" stroke-miterlimit="10"/>
<path d="M24.3367 21.0003V20.7023C24.3365 19.9863 24.052 19.2997 23.5456 18.7935C23.0393 18.2873 22.3527 18.0029 21.6367 18.0029H18.366C17.6502 18.0031 16.9637 18.2876 16.4575 18.7937C15.9513 19.2999 15.6669 19.9864 15.6667 20.7023V21.0003" stroke="black" stroke-width="1.33333" stroke-linecap="round" stroke-linejoin="round"/>
<path d="M13.004 13.332V17.3354" stroke="black" stroke-width="1.33333" stroke-miterlimit="10" stroke-linecap="round"/>
<path d="M15.006 15.333H11.0054" stroke="black" stroke-width="1.33333" stroke-miterlimit="10" stroke-linecap="round"/>
</svg>
