<svg width="25" height="25" viewBox="0 0 25 25" fill="none" xmlns="http://www.w3.org/2000/svg">
<path d="M12.7197 14.3899C13.5482 14.3899 14.2197 13.7183 14.2197 12.8899C14.2197 12.0615 13.5482 11.3899 12.7197 11.3899C11.8913 11.3899 11.2197 12.0615 11.2197 12.8899C11.2197 13.7183 11.8913 14.3899 12.7197 14.3899Z" fill="black"/>
<path d="M6.71973 14.3899C7.54815 14.3899 8.21973 13.7183 8.21973 12.8899C8.21973 12.0615 7.54815 11.3899 6.71973 11.3899C5.8913 11.3899 5.21973 12.0615 5.21973 12.8899C5.21973 13.7183 5.8913 14.3899 6.71973 14.3899Z" fill="black"/>
<path d="M18.7197 14.3899C19.5482 14.3899 20.2197 13.7183 20.2197 12.8899C20.2197 12.0615 19.5482 11.3899 18.7197 11.3899C17.8913 11.3899 17.2197 12.0615 17.2197 12.8899C17.2197 13.7183 17.8913 14.3899 18.7197 14.3899Z" fill="black"/>
</svg>
