<svg width="13" height="13" viewBox="0 0 13 13" fill="none" xmlns="http://www.w3.org/2000/svg">
<path d="M9.11581 2.73104C9.77303 2.76737 10.3892 3.06199 10.8302 3.55069C11.2711 4.03939 11.501 4.68256 11.4698 5.34004C11.4698 6.87604 10.1438 7.81954 8.87131 8.95104C7.61531 10.0725 6.93881 10.6855 6.71981 10.827C6.48131 10.6725 5.64831 9.91554 4.56831 8.95104C3.29031 7.81504 1.96981 6.86254 1.96981 5.34004C1.93859 4.68256 2.1685 4.03939 2.60944 3.55069C3.05037 3.06199 3.66659 2.76737 4.32381 2.73104C4.68788 2.72 5.04859 2.80363 5.37067 2.97374C5.69274 3.14385 5.96517 3.39462 6.16131 3.70154C6.58131 4.28904 6.65131 4.58304 6.72131 4.58304C6.79131 4.58304 6.86031 4.28904 7.27631 3.70004C7.47134 3.3917 7.74387 3.13994 8.06666 2.9699C8.38946 2.79986 8.75122 2.71749 9.11581 2.73104ZM9.11581 1.73104C8.66177 1.7165 8.21031 1.80458 7.79503 1.98871C7.37976 2.17285 7.01137 2.44829 6.71731 2.79454C6.4235 2.4493 6.05587 2.17449 5.64158 1.99042C5.2273 1.80634 4.77695 1.7177 4.32381 1.73104C3.40124 1.76711 2.5305 2.16703 1.90198 2.84334C1.27346 3.51964 0.938307 4.41731 0.969809 5.34004C0.969809 7.14504 2.24481 8.25354 3.47731 9.32504C3.61881 9.44804 3.76181 9.57204 3.90381 9.69854L4.41731 10.1575C4.97733 10.6904 5.56444 11.1941 6.17631 11.6665C6.3382 11.7714 6.52695 11.8271 6.71981 11.8271C6.91267 11.8271 7.10142 11.7714 7.26331 11.6665C7.89466 11.1797 8.49983 10.6598 9.07631 10.109L9.53731 9.69704C9.68381 9.56704 9.83231 9.43754 9.97981 9.31004C11.1468 8.29754 12.4698 7.15004 12.4698 5.34004C12.5013 4.41731 12.1662 3.51964 11.5376 2.84334C10.9091 2.16703 10.0384 1.76711 9.11581 1.73104Z" fill="#262626"/>
</svg>
