<svg width="13" height="13" viewBox="0 0 13 13" fill="none" xmlns="http://www.w3.org/2000/svg">
<path d="M2.41999 3.74816C2.48566 3.74809 2.55069 3.761 2.61135 3.78614C2.67202 3.81128 2.72712 3.84816 2.77349 3.89466L6.91999 8.04266L11.0665 3.89466C11.1126 3.8469 11.1678 3.80881 11.2288 3.78261C11.2898 3.7564 11.3554 3.74261 11.4218 3.74203C11.4882 3.74146 11.554 3.75411 11.6155 3.77925C11.6769 3.80439 11.7327 3.84151 11.7797 3.88846C11.8266 3.93541 11.8638 3.99123 11.8889 4.05268C11.914 4.11413 11.9267 4.17997 11.9261 4.24636C11.9255 4.31275 11.9117 4.37836 11.8855 4.43936C11.8593 4.50036 11.8212 4.55553 11.7735 4.60166L7.27349 9.10366C7.1779 9.19388 7.05143 9.24414 6.91999 9.24414C6.78854 9.24414 6.66208 9.19388 6.56649 9.10366L2.06649 4.60166C1.99658 4.53173 1.94898 4.44265 1.9297 4.34567C1.91041 4.2487 1.92031 4.14818 1.95815 4.05683C1.99598 3.96548 2.06005 3.8874 2.14226 3.83246C2.22446 3.77751 2.32111 3.74818 2.41999 3.74816Z" fill="#737373"/>
</svg>
