<svg width="25" height="24" viewBox="0 0 25 24" fill="none" xmlns="http://www.w3.org/2000/svg">
<path d="M17.4015 3.90153C18.716 3.9742 19.9484 4.56343 20.8303 5.54083C21.7122 6.51824 22.172 7.80457 22.1095 9.11953C22.1095 12.1915 19.4575 14.0785 16.9125 16.3415C14.4005 18.5845 13.0475 19.8105 12.6095 20.0935C12.1325 19.7845 10.4665 18.2705 8.30654 16.3415C5.75054 14.0695 3.10954 12.1645 3.10954 9.11953C3.04711 7.80457 3.50693 6.51824 4.3888 5.54083C5.27067 4.56343 6.50311 3.9742 7.81754 3.90153C8.54569 3.87946 9.2671 4.04671 9.91125 4.38693C10.5554 4.72715 11.1003 5.22869 11.4925 5.84253C12.3325 7.01753 12.4725 7.60553 12.6125 7.60553C12.7525 7.60553 12.8905 7.01753 13.7225 5.83953C14.1126 5.22285 14.6577 4.71932 15.3032 4.37924C15.9488 4.03916 16.6724 3.87444 17.4015 3.90153ZM17.4015 1.90153C16.4935 1.87246 15.5905 2.04861 14.76 2.41688C13.9294 2.78515 13.1927 3.33604 12.6045 4.02853C12.0169 3.33806 11.2817 2.78844 10.4531 2.42028C9.62452 2.05213 8.72382 1.87484 7.81754 1.90153C5.97241 1.97368 4.23092 2.77351 2.97388 4.12613C1.71684 5.47874 1.04653 7.27407 1.10954 9.11953C1.10954 12.7295 3.65954 14.9465 6.12454 17.0895C6.40754 17.3355 6.69354 17.5835 6.97754 17.8365L8.00454 18.7545C9.12458 19.8203 10.2988 20.8276 11.5225 21.7725C11.8463 21.9822 12.2238 22.0937 12.6095 22.0937C12.9953 22.0937 13.3728 21.9822 13.6965 21.7725C14.9592 20.7988 16.1696 19.759 17.3225 18.6575L18.2445 17.8335C18.5375 17.5735 18.8345 17.3145 19.1295 17.0595C21.4635 15.0345 24.1095 12.7395 24.1095 9.11953C24.1725 7.27407 23.5022 5.47874 22.2452 4.12613C20.9882 2.77351 19.2467 1.97368 17.4015 1.90153Z" fill="#262626"/>
</svg>
