<svg width="13" height="12" viewBox="0 0 13 12" fill="none" xmlns="http://www.w3.org/2000/svg">
<path d="M5.53303 2.56137L6.14703 1.94737C6.75385 1.34068 7.57681 0.999906 8.43489 1C9.29296 1.00009 10.1159 1.34105 10.7225 1.94787C11.3292 2.55468 11.67 3.37765 11.6699 4.23572C11.6698 5.09379 11.3288 5.91668 10.722 6.52337L10.1085 7.13687M7.80703 9.43837L7.19303 10.0524C6.58622 10.659 5.76325 10.9998 4.90518 10.9997C4.04711 10.9996 3.22422 10.6587 2.61753 10.0519C2.01085 9.44505 1.67007 8.62209 1.67017 7.76401C1.67026 6.90594 2.01122 6.08305 2.61803 5.47637L3.23153 4.86287" stroke="#00376B" stroke-linecap="round" stroke-linejoin="round"/>
<path d="M4.90552 7.76435L8.43452 4.23535" stroke="#00376B" stroke-linecap="round" stroke-linejoin="round"/>
</svg>
