<svg width="13" height="13" viewBox="0 0 13 13" fill="none" xmlns="http://www.w3.org/2000/svg">
<path d="M5.74045 2.56797L6.63995 1.66797L7.53945 2.56797C7.68857 2.7169 7.89071 2.80052 8.10145 2.80047H10.731C10.972 2.80047 11.2032 2.89624 11.3737 3.06671C11.5442 3.23718 11.64 3.46839 11.64 3.70947V10.7615C11.64 11.0026 11.5442 11.2338 11.3737 11.4042C11.2032 11.5747 10.972 11.6705 10.731 11.6705H2.54895C2.30787 11.6705 2.07666 11.5747 1.90619 11.4042C1.73572 11.2338 1.63995 11.0026 1.63995 10.7615V3.70947C1.63995 3.46839 1.73572 3.23718 1.90619 3.06671C2.07666 2.89624 2.30787 2.80047 2.54895 2.80047H5.17895C5.38953 2.80039 5.59146 2.71677 5.74045 2.56797Z" stroke="#737373" stroke-linecap="round" stroke-linejoin="round"/>
<path d="M9.93896 11.671V11.37C9.93896 10.8464 9.73101 10.3443 9.36082 9.974C8.99064 9.60373 8.48855 9.39564 7.96496 9.39551H5.38746C4.86379 9.39551 4.36157 9.60353 3.99128 9.97383C3.62099 10.3441 3.41296 10.8463 3.41296 11.37V11.6715" stroke="#737373" stroke-linecap="round" stroke-linejoin="round"/>
<path d="M6.67595 7.98569C7.65791 7.98569 8.45395 7.18965 8.45395 6.20769C8.45395 5.22573 7.65791 4.42969 6.67595 4.42969C5.69399 4.42969 4.89795 5.22573 4.89795 6.20769C4.89795 7.18965 5.69399 7.98569 6.67595 7.98569Z" stroke="#737373" stroke-linecap="round" stroke-linejoin="round"/>
</svg>
