<svg width="17" height="16" viewBox="0 0 17 16" fill="none" xmlns="http://www.w3.org/2000/svg">
<path d="M12.4648 7.41569C12.3959 7.38266 12.3259 7.35087 12.255 7.32043C12.1315 5.04485 10.8881 3.74208 8.80024 3.72875C8.79078 3.72869 8.78138 3.72869 8.77192 3.72869C7.52312 3.72869 6.48451 4.26174 5.84525 5.23173L6.9935 6.0194C7.47105 5.29486 8.22052 5.1404 8.77247 5.1404C8.77884 5.1404 8.78524 5.1404 8.79155 5.14046C9.479 5.14484 9.99775 5.34472 10.3335 5.7345C10.5778 6.01828 10.7413 6.41042 10.8222 6.90532C10.2127 6.80173 9.5535 6.76988 8.84883 6.81028C6.86381 6.92462 5.58768 8.08232 5.67338 9.691C5.71688 10.507 6.12339 11.209 6.818 11.6676C7.40528 12.0553 8.16167 12.2448 8.94778 12.2019C9.98592 12.145 10.8003 11.7489 11.3685 11.0247C11.8 10.4747 12.0729 9.76192 12.1934 8.86383C12.6882 9.16242 13.0548 9.55533 13.2573 10.0277C13.6017 10.8306 13.6218 12.15 12.5452 13.2257C11.6019 14.168 10.4681 14.5757 8.75454 14.5883C6.85377 14.5742 5.41623 13.9646 4.48159 12.7764C3.60638 11.6638 3.15406 10.0568 3.13718 8C3.15406 5.94315 3.60638 4.33613 4.48159 3.22356C5.41623 2.03541 6.85374 1.42583 8.75452 1.41171C10.6691 1.42594 12.1317 2.03845 13.1021 3.23233C13.5779 3.8178 13.9367 4.55407 14.1732 5.41253L15.5188 5.05352C15.2321 3.99685 14.781 3.08631 14.1672 2.33117C12.9231 0.800557 11.1036 0.0162623 8.75921 0H8.74983C6.41022 0.0162058 4.61109 0.803483 3.40244 2.33994C2.32691 3.7072 1.77212 5.60964 1.75348 7.99438L1.75342 8L1.75348 8.00562C1.77212 10.3903 2.32691 12.2928 3.40244 13.6601C4.61109 15.1965 6.41022 15.9838 8.74983 16H8.75921C10.8393 15.9856 12.3054 15.441 13.5133 14.2343C15.0935 12.6555 15.0459 10.6766 14.5251 9.46175C14.1514 8.59058 13.439 7.88302 12.4648 7.41569ZM8.87346 10.7923C8.00346 10.8413 7.09962 10.4508 7.05505 9.61433C7.02202 8.99417 7.4964 8.30217 8.92685 8.21973C9.09067 8.21028 9.25142 8.20567 9.40934 8.20567C9.92892 8.20567 10.415 8.25614 10.8569 8.35275C10.6921 10.4113 9.72525 10.7455 8.87346 10.7923Z" fill="black"/>
</svg>
