<svg width="13" height="13" viewBox="0 0 13 13" fill="none" xmlns="http://www.w3.org/2000/svg">
<path d="M1.37445 4.1709H11.325" stroke="#737373" stroke-linejoin="round"/>
<path d="M7.10199 1.6709L8.53099 4.1714" stroke="#737373" stroke-linecap="round" stroke-linejoin="round"/>
<path d="M3.95349 1.72461L5.35099 4.17061" stroke="#737373" stroke-linecap="round" stroke-linejoin="round"/>
<path d="M1.34998 6.67042V8.39492C1.34998 9.81942 1.69898 10.3979 2.15298 10.8674C2.62298 11.3214 3.20198 11.6709 4.62598 11.6709H8.07398C9.49798 11.6709 10.077 11.3214 10.547 10.8674C11.001 10.3979 11.35 9.81942 11.35 8.39492V4.94592C11.35 3.52192 11.001 2.94292 10.547 2.47342C10.077 2.01942 9.49798 1.66992 8.07398 1.66992H4.62598C3.20198 1.66992 2.62298 2.01942 2.15298 2.47342C1.69898 2.94292 1.34998 3.52192 1.34998 4.94592V6.67042Z" stroke="#737373" stroke-linecap="round" stroke-linejoin="round"/>
<path fill-rule="evenodd" clip-rule="evenodd" d="M5.23146 9.50231C5.16239 9.46244 5.10505 9.40507 5.0652 9.33599C5.02535 9.26691 5.0044 9.18856 5.00446 9.10881V6.48531C5.00436 6.40546 5.02531 6.32699 5.06518 6.25781C5.10506 6.18863 5.16246 6.13117 5.2316 6.09123C5.30074 6.05128 5.37919 6.03026 5.45904 6.03027C5.53889 6.03029 5.61733 6.05134 5.68646 6.09131L7.95896 7.40331C8.02812 7.44318 8.08555 7.50057 8.12549 7.56969C8.16542 7.63881 8.18645 7.71723 8.18645 7.79706C8.18645 7.87689 8.16542 7.95531 8.12549 8.02443C8.08555 8.09355 8.02812 8.15094 7.95896 8.19081L5.68646 9.50281C5.61729 9.54274 5.53883 9.56377 5.45896 9.56377C5.37909 9.56377 5.30062 9.54274 5.23146 9.50281V9.50231Z" fill="#737373"/>
</svg>
