<svg width="25" height="25" viewBox="0 0 25 25" fill="none" xmlns="http://www.w3.org/2000/svg">
<path d="M16.4394 11.8846C16.2086 11.8846 15.9829 11.9531 15.791 12.0813C15.5991 12.2095 15.4495 12.3918 15.3612 12.605C15.2729 12.8183 15.2498 13.0529 15.2948 13.2793C15.3398 13.5057 15.451 13.7136 15.6142 13.8768C15.7774 14.04 15.9853 14.1512 16.2117 14.1962C16.4381 14.2412 16.6727 14.2181 16.886 14.1298C17.0992 14.0415 17.2815 13.8919 17.4097 13.7C17.5379 13.5081 17.6064 13.2824 17.6064 13.0516C17.6064 12.7421 17.4834 12.4453 17.2646 12.2264C17.0457 12.0076 16.7489 11.8846 16.4394 11.8846ZM9.93938 13.0516C9.93938 12.8208 9.87091 12.5951 9.74263 12.4032C9.61436 12.2112 9.43204 12.0617 9.21874 11.9734C9.00544 11.8851 8.77074 11.862 8.54434 11.9071C8.31794 11.9522 8.11 12.0635 7.94683 12.2268C7.78367 12.3901 7.6726 12.5981 7.62768 12.8246C7.58277 13.051 7.60602 13.2857 7.6945 13.4989C7.78298 13.7121 7.93271 13.8943 8.12476 14.0224C8.3168 14.1505 8.54253 14.2188 8.77338 14.2186C9.08271 14.2184 9.37929 14.0953 9.59793 13.8765C9.81657 13.6576 9.93938 13.361 9.93938 13.0516ZM15.1024 16.2916C14.7842 16.6338 14.3989 16.9069 13.9707 17.0938C13.5424 17.2808 13.0802 17.3776 12.6129 17.3783C12.1456 17.3789 11.6832 17.2834 11.2544 17.0977C10.8256 16.9119 10.4396 16.6399 10.1204 16.2986C9.95382 16.0922 9.71207 15.9603 9.4483 15.9321C9.18453 15.9039 8.92035 15.9816 8.71388 16.1481C8.50741 16.3147 8.37556 16.5564 8.34733 16.8202C8.31911 17.084 8.39682 17.3482 8.56338 17.5546C9.06982 18.128 9.69237 18.5871 10.3897 18.9016C11.0871 19.2161 11.8434 19.3787 12.6084 19.3787C13.3734 19.3787 14.1296 19.2161 14.827 18.9016C15.5244 18.5871 16.1469 18.128 16.6534 17.5546C16.8133 17.3483 16.8863 17.0877 16.8567 16.8283C16.827 16.569 16.6972 16.3315 16.4948 16.1666C16.2925 16.0017 16.0336 15.9225 15.7736 15.9459C15.5137 15.9692 15.2731 16.0933 15.1034 16.2916H15.1024ZM12.6094 1.39062C10.3349 1.39062 8.11149 2.06509 6.22032 3.32872C4.32916 4.59236 2.85517 6.38841 1.98477 8.48977C1.11436 10.5911 0.886619 12.9034 1.33035 15.1342C1.77408 17.3649 2.86935 19.414 4.47765 21.0224C6.08596 22.6307 8.13506 23.7259 10.3658 24.1697C12.5966 24.6134 14.9089 24.3856 17.0102 23.5152C19.1116 22.6448 20.9076 21.1708 22.1713 19.2797C23.4349 17.3885 24.1094 15.1651 24.1094 12.8906C24.1059 9.84169 22.8932 6.91862 20.7373 4.7627C18.5814 2.60677 15.6583 1.39407 12.6094 1.39062ZM12.6094 22.3906C10.7305 22.3906 8.89373 21.8335 7.33146 20.7896C5.7692 19.7457 4.55156 18.262 3.83252 16.5261C3.11349 14.7902 2.92536 12.8801 3.29192 11.0373C3.65848 9.19445 4.56327 7.50171 5.89187 6.17311C7.22046 4.84451 8.9132 3.93972 10.756 3.57316C12.5988 3.20661 14.509 3.39474 16.2449 4.11377C17.9808 4.8328 19.4645 6.05044 20.5083 7.61271C21.5522 9.17497 22.1094 11.0117 22.1094 12.8906C22.1067 15.4094 21.105 17.8242 19.324 19.6052C17.5429 21.3862 15.1281 22.388 12.6094 22.3906Z" fill="black"/>
</svg>
