<svg width="13" height="13" viewBox="0 0 13 13" fill="none" xmlns="http://www.w3.org/2000/svg">
<path d="M11.387 12.3899H2.05299C1.92039 12.3899 1.79321 12.3372 1.69944 12.2435C1.60567 12.1497 1.55299 12.0225 1.55299 11.8899V11.2129C1.55392 10.3815 1.88462 9.58436 2.47253 8.99645C3.06044 8.40854 3.85756 8.07784 4.68899 8.07692H8.75099C9.58226 8.07797 10.3792 8.40866 10.967 8.99645C11.5547 9.58424 11.8854 10.3812 11.8865 11.2124V11.8899C11.8865 12.0225 11.8338 12.1497 11.74 12.2435C11.6463 12.3372 11.5196 12.3899 11.387 12.3899ZM6.71999 7.52442C6.12665 7.52442 5.54663 7.34847 5.05328 7.01882C4.55994 6.68918 4.17542 6.22064 3.94836 5.67247C3.72129 5.12429 3.66188 4.52109 3.77764 3.93914C3.89339 3.3572 4.17912 2.82265 4.59867 2.4031C5.01823 1.98354 5.55278 1.69782 6.13472 1.58206C6.71667 1.4663 7.31987 1.52571 7.86804 1.75278C8.41622 1.97984 8.88476 2.36436 9.2144 2.8577C9.54405 3.35105 9.71999 3.93107 9.71999 4.52442C9.71907 5.31978 9.4027 6.0823 8.84029 6.64471C8.27788 7.20712 7.51536 7.52349 6.71999 7.52442Z" fill="white"/>
</svg>
