<svg width="13" height="12" viewBox="0 0 13 12" fill="none" xmlns="http://www.w3.org/2000/svg">
<path d="M1.53005 3.24913C1.59572 3.24907 1.66075 3.26197 1.72142 3.28711C1.78208 3.31226 1.83718 3.34913 1.88355 3.39563L6.03005 7.54363L10.1765 3.39563C10.2227 3.34788 10.2778 3.30979 10.3388 3.28358C10.3998 3.25738 10.4655 3.24359 10.5318 3.24301C10.5982 3.24243 10.6641 3.25508 10.7255 3.28022C10.787 3.30536 10.8428 3.34249 10.8897 3.38944C10.9367 3.43638 10.9738 3.49221 10.999 3.55366C11.0241 3.61511 11.0368 3.68095 11.0362 3.74733C11.0356 3.81372 11.0218 3.87933 10.9956 3.94034C10.9694 4.00134 10.9313 4.05651 10.8835 4.10263L6.38355 8.60463C6.28796 8.69486 6.16149 8.74512 6.03005 8.74512C5.89861 8.74512 5.77214 8.69486 5.67655 8.60463L1.17655 4.10263C1.10664 4.03271 1.05904 3.94363 1.03976 3.84665C1.02047 3.74967 1.03038 3.64916 1.06821 3.55781C1.10605 3.46646 1.17012 3.38838 1.25232 3.33343C1.33453 3.27849 1.43117 3.24915 1.53005 3.24913Z" fill="black"/>
</svg>
