<svg width="39" height="39" viewBox="0 0 39 39" fill="none" xmlns="http://www.w3.org/2000/svg">
<path fill-rule="evenodd" clip-rule="evenodd" d="M22.1416 26.8299C22.1416 28.2739 20.8496 29.4899 19.3296 29.4899C17.8096 29.4899 16.5176 28.2739 16.5176 26.8299C16.5176 25.3859 17.8096 24.1699 19.3296 24.1699C20.8496 24.1699 22.1416 25.3099 22.1416 26.8299Z" fill="#1D85FC" stroke="white" stroke-width="1.14" stroke-miterlimit="10"/>
<path fill-rule="evenodd" clip-rule="evenodd" d="M27.6138 24.3981C26.7018 23.8661 24.4978 22.1181 25.0298 17.7861C25.1058 17.0261 25.1058 16.1901 25.0298 15.4301C24.8018 12.3141 22.0658 9.95815 18.8738 10.1861C16.0618 10.4141 13.8578 12.6181 13.6298 15.4301C13.5538 16.1901 13.5538 17.0261 13.6298 17.7861C14.0858 22.1181 11.9578 23.8661 11.0458 24.3981C10.7418 24.5501 10.5898 24.8541 10.5898 25.1581V26.5261C10.5898 26.6781 10.7418 26.8301 10.8938 26.8301H27.7658C27.9178 26.8301 28.0698 26.6781 28.0698 26.5261V25.1581C28.0698 24.8541 27.9178 24.5501 27.6138 24.3981Z" fill="#1D85FC" stroke="white" stroke-width="1.52" stroke-miterlimit="10"/>
</svg>
